# xmcd
#
# Track frame offsets: 
#        150
#        24203
#        47040
#        68530
#        87141
#        109768
#        129438
#        147553
#        167517
#        186227
#        207906
#        228335
#        247688
#        265313
#        286940
#        307181
#        326732
#
# Disc length: 4552 seconds
#
# Revision: 0
# Processed by: cddbd v1.5.2PL0 Copyright (c) Steve Scherf et al.
# Submitted via: ExactAudioCopy v1.0b2
#
DISCID=ea11c611
DTITLE=群星 - 音乐盛宴《发烧网络》ES
DYEAR=2011
DGENRE=Instrumental Pop
TTITLE0=雷婷 - 春天里
TTITLE1=乌兰托娅 - 高原蓝
TTITLE2=雷婷 - 我用一生来等你
TTITLE3=乌兰托娅 - 爱琴海
TTITLE4=刘科   - 绝笔信
TTITLE5=雷婷   - 单身情歌
TTITLE6=刘科   - 爱你今生到永远
TTITLE7=王洋 - 爱情末班车
TTITLE8=雷婷   - 从此我该怎么过
TTITLE9=晓丹 - 得到你的人却得不到你的心
TTITLE10=雷婷   - 一厢情愿
TTITLE11=凤凰传奇 - 自由飞翔
TTITLE12=凤凰传奇 - 月亮之上
TTITLE13=亚东 - 梦中的绿洲
TTITLE14=段千寻 - 亲爱的别让我难过
TTITLE15=董文华 - 春天的故事
TTITLE16=王子月 - 你给的冬天
EXTD=
EXTT0=
EXTT1=
EXTT2=
EXTT3=
EXTT4=
EXTT5=
EXTT6=
EXTT7=
EXTT8=
EXTT9=
EXTT10=
EXTT11=
EXTT12=
EXTT13=
EXTT14=
EXTT15=
EXTT16=
PLAYORDER=
